<svg xmlns="http://www.w3.org/2000/svg" viewBox="0 0 64 64" fill="none">
  <defs>
    <linearGradient id="body" x1="32" y1="4" x2="32" y2="52" gradientUnits="userSpaceOnUse">
      <stop offset="0%" stop-color="#c084fc"/>
      <stop offset="100%" stop-color="#6d28d9"/>
    </linearGradient>
    <linearGradient id="wing" x1="0" y1="0" x2="1" y2="1">
      <stop offset="0%" stop-color="#a78bfa"/>
      <stop offset="100%" stop-color="#4c1d95"/>
    </linearGradient>
    <linearGradient id="flame1" x1="32" y1="48" x2="32" y2="62" gradientUnits="userSpaceOnUse">
      <stop offset="0%" stop-color="#f59e0b"/>
      <stop offset="50%" stop-color="#ef4444"/>
      <stop offset="100%" stop-color="#dc2626" stop-opacity="0"/>
    </linearGradient>
    <linearGradient id="flame2" x1="32" y1="48" x2="32" y2="58" gradientUnits="userSpaceOnUse">
      <stop offset="0%" stop-color="#fbbf24"/>
      <stop offset="100%" stop-color="#f97316" stop-opacity="0"/>
    </linearGradient>
  </defs>
  <!-- Outer flame -->
  <path d="M26 48 C26 48 24 58 28 62 C30 64 34 64 36 62 C40 58 38 48 38 48 C35 52 29 52 26 48Z" fill="url(#flame1)"/>
  <!-- Inner flame -->
  <path d="M28 48 C28 48 27 54 30 57 C31 58 33 58 34 57 C37 54 36 48 36 48 C34 51 30 51 28 48Z" fill="url(#flame2)"/>
  <!-- Left fin -->
  <path d="M20 36 L12 46 L14 48 L22 42 Z" fill="url(#wing)"/>
  <!-- Right fin -->
  <path d="M44 36 L52 46 L50 48 L42 42 Z" fill="url(#wing)"/>
  <!-- Rocket body -->
  <path d="M32 4 C32 4 20 18 20 38 C20 44 22 47 24 48 L40 48 C42 47 44 44 44 38 C44 18 32 4 32 4Z" fill="url(#body)"/>
  <!-- Nose highlight -->
  <path d="M32 4 C32 4 26 14 24 24 L32 10 Z" fill="white" opacity="0.25"/>
  <!-- Window ring -->
  <circle cx="32" cy="28" r="7" fill="#1e1b4b" opacity="0.85"/>
  <!-- Window glass -->
  <circle cx="32" cy="28" r="5" fill="#818cf8" opacity="0.5"/>
  <!-- Window shine -->
  <ellipse cx="30" cy="26" rx="2.5" ry="1.5" fill="white" opacity="0.5"/>
  <!-- Bottom band -->
  <rect x="24" y="44" width="16" height="3" rx="1" fill="#4c1d95" opacity="0.5"/>
</svg>
